# xmcd
#
# Track frame offsets: 
#        150
#        14817
#        40185
#        61761
#        86370
#        112580
#        150249
#        191542
#        217253
#        250505
#        272659
#
# Disc length: 4038 seconds
#
# Revision: 0
# Processed by: cddbd v1.5.1PL0 Copyright (c) Steve Scherf et al.
# Submitted via: ExactAudioCopy v0.95b1
#
DISCID=840fc40b
DTITLE=Eric Clapton - Jurassic Clapton (Sixstring Maximus In London)
DYEAR=2001
DGENRE=Blues
TTITLE0=Key To The Highway
TTITLE1=Reptile
TTITLE2=Tears In Heaven
TTITLE3=Bell Bottom Blues
TTITLE4=Change The World
TTITLE5=My Father's Eyes
TTITLE6=River Of Tears
TTITLE7=Going Down Slow
TTITLE8=She's Gone
TTITLE9=Got You On My Mind
TTITLE10=Don't Let Me Be Lonely Tonight
EXTD=
EXTT0=
EXTT1=
EXTT2=
EXTT3=
EXTT4=
EXTT5=
EXTT6=
EXTT7=
EXTT8=
EXTT9=
EXTT10=
PLAYORDER=
